<?xml version="1.0" encoding="UTF-8" standalone="no"?>
<!DOCTYPE svg PUBLIC "-//W3C//DTD SVG 1.1//EN" "http://www.w3.org/Graphics/SVG/1.1/DTD/svg11.dtd">
<svg width="100%" height="100%" viewBox="0 0 444 110" version="1.1" xmlns="http://www.w3.org/2000/svg" xmlns:xlink="http://www.w3.org/1999/xlink" xml:space="preserve" xmlns:serif="http://www.serif.com/" style="fill-rule:evenodd;clip-rule:evenodd;stroke-linejoin:round;stroke-miterlimit:1.41421;">
    <g transform="matrix(1,0,0,1,-50,-15.7815)">
        <g transform="matrix(1,0,0,1.0196,0,0)">
            <g transform="matrix(1.01086,0,0,0.98474,-225.344,-61.6027)">
                <g transform="matrix(0.686964,0,0,0.691627,272.385,78.2753)">
                    <g>
                        <g id="Layer-1" serif:id="Layer 1">
                            <g transform="matrix(1,0,0,1,21.2567,107.991)">
                                <path d="M0,-56.338C-6.838,-73.306 1.753,-89.985 16.453,-97.596C29.241,-104.216 41.937,-103.255 54.45,-96.728C55.313,-96.278 55.736,-96.309 56.401,-97.062C61.289,-102.599 67.269,-106.289 74.634,-107.515C83.052,-108.918 90.897,-107.193 98.044,-102.693C109.673,-95.37 115.738,-84.704 116.445,-70.982C116.521,-69.505 116.622,-68.029 116.436,-66.557C116.354,-65.916 116.593,-65.645 117.232,-65.523C130.701,-62.968 140.541,-52.494 142.388,-38.315C144.228,-24.188 139.542,-12.362 128.618,-3.107C127,-1.735 125.269,-0.511 123.448,0.579C122.947,0.88 122.826,1.138 123.083,1.716C130.552,18.582 122.105,36.042 106.811,44.024C100.913,47.101 94.659,48.687 88.018,48.462C80.487,48.206 73.49,46.004 67.005,42.187C66.414,41.84 66.029,41.727 65.458,42.26C54.875,52.132 39.313,52.58 27.216,45.701C16.313,39.502 9.912,30.117 7.836,17.757C7.49,15.703 7.355,13.633 7.192,11.564C7.567,11.173 8.063,11.206 8.536,11.206C9.931,11.208 11.326,11.158 12.72,11.199C13.243,11.384 13.206,11.886 13.307,12.291C14.381,16.633 16.579,20.324 19.678,23.528C24.501,28.515 30.151,32.155 36.804,34.184C42.716,35.988 48.549,35.793 54.277,33.403C55.344,32.958 55.362,32.905 54.662,31.998C51.521,27.931 49.375,23.412 48.728,18.29C48.434,15.963 48.226,13.568 49.248,11.32C50.322,8.958 52.133,7.664 54.784,7.636C56.312,7.62 57.816,7.641 59.252,8.295C61.04,9.109 61.633,10.169 61.351,12.113C61.093,13.892 60.642,15.632 60.423,17.426C60.035,20.605 60.601,23.636 61.459,26.65C61.574,27.053 61.625,27.623 62.121,27.706C62.609,27.789 62.849,27.274 63.107,26.941C66.177,22.988 68.049,18.593 68.301,13.521C68.429,10.951 68.213,8.422 67.951,5.884C67.819,4.6 67.996,4.344 69.276,4.122C70.146,3.972 71.032,4.05 71.909,3.973C72.753,3.898 72.964,4.575 73.154,5.189C73.901,7.6 74.419,10.067 74.802,12.559C75.674,18.232 75.577,23.866 74.054,29.434C73.405,31.804 72.438,34.031 71.099,36.095C70.154,37.551 70.223,37.683 71.869,38.35C76.505,40.223 81.243,40.263 85.998,39.012C93.375,37.072 99.71,33.288 104.881,27.69C110.032,22.114 112.31,15.47 111.666,7.872C111.53,6.266 111.432,6.205 109.819,6.553C104.161,7.774 98.494,8.165 92.839,6.606C89.611,5.716 86.622,4.302 84,2.174C79.043,-1.849 81.078,-7.964 86.104,-10.344C87.526,-11.018 89.055,-10.421 90.331,-8.937C91.741,-7.296 93.249,-5.76 94.978,-4.443C98.723,-1.588 102.988,-0.181 107.639,0.185C107.798,0.198 107.958,0.201 108.118,0.194C109.077,0.148 109.242,-0.083 108.759,-0.875C107.968,-2.172 107.119,-3.433 106.106,-4.575C103.028,-8.048 99.183,-10.332 94.849,-11.859C94.132,-12.111 93.42,-12.375 92.72,-12.671C92.004,-12.974 91.754,-13.465 92.048,-14.206C92.106,-14.354 92.033,-14.169 92.091,-14.317C93.556,-18.062 93.185,-17.815 96.829,-17.08C104.214,-15.591 110.917,-12.645 116.711,-7.761C117.569,-7.038 118.354,-6.241 119.089,-5.394C119.821,-4.552 120.14,-4.512 120.897,-5.373C122.324,-6.994 123.656,-8.681 124.691,-10.603C126.794,-14.502 127.928,-18.683 128.454,-23.046C129.034,-27.849 128.937,-32.624 127.608,-37.316C125.762,-43.832 122.026,-48.931 116.195,-52.447C116.093,-52.509 115.987,-52.566 115.882,-52.623C114.382,-53.437 114.263,-53.406 113.642,-51.838C111.992,-47.675 109.862,-43.784 106.76,-40.53C103.688,-37.308 100.159,-34.711 95.765,-33.541C90.428,-32.119 87.209,-35.479 86.756,-40.339C86.715,-40.776 86.734,-41.219 86.754,-41.658C86.829,-43.362 87.477,-44.192 89.121,-44.694C89.812,-44.904 90.519,-45.044 91.233,-45.133C96.349,-45.777 100.832,-47.811 104.649,-51.276C105.688,-52.218 106.523,-53.347 107.355,-54.475C107.816,-55.101 107.684,-55.355 106.929,-55.442C103.979,-55.784 101.102,-55.424 98.275,-54.586C95.177,-53.667 92.373,-52.141 89.728,-50.306C89.268,-49.987 88.796,-49.686 88.325,-49.382C87.659,-48.954 87.139,-49.065 86.704,-49.732C86.288,-50.368 85.891,-51.018 85.455,-51.638C84.833,-52.524 85.002,-53.197 85.74,-53.947C89.198,-57.456 93.142,-60.287 97.512,-62.538C101.276,-64.477 105.205,-65.903 109.455,-66.275C110.325,-66.351 110.394,-66.796 110.282,-67.489C109.822,-70.373 108.8,-73.051 107.309,-75.546C103.728,-81.54 98.631,-85.942 92.612,-89.336C89.45,-91.118 86.076,-92.356 82.46,-92.822C76.798,-93.553 71.473,-92.534 66.539,-89.62C65.533,-89.026 65.532,-88.83 66.403,-87.919C70.897,-83.224 73.861,-77.742 74.766,-71.264C75.068,-69.094 75.165,-66.872 74.534,-64.716C73.524,-61.268 70.647,-59.45 67.089,-59.953C65.771,-60.139 64.496,-60.434 63.358,-61.171C62.49,-61.734 62.019,-62.473 62.014,-63.552C62.009,-64.651 62.25,-65.691 62.504,-66.741C63.783,-72.031 63.55,-77.21 61.344,-82.239C61.231,-82.496 61.139,-82.761 61.005,-83.007C60.516,-83.907 60.272,-83.955 59.675,-83.115C57.496,-80.059 56.266,-76.635 55.713,-72.931C55.374,-70.657 55.521,-68.381 55.468,-66.106C55.434,-64.641 55.259,-64.467 53.784,-64.437C50.309,-64.366 50.309,-64.366 49.833,-67.786C48.944,-74.182 48.99,-80.537 50.664,-86.822C50.953,-87.908 51.322,-88.962 51.747,-90C52.335,-91.437 52.31,-91.486 50.788,-91.986C46.824,-93.29 42.791,-93.505 38.73,-92.584C30.887,-90.805 24.034,-87.158 18.517,-81.27C13.362,-75.767 11.021,-69.185 11.634,-61.616C11.66,-61.296 11.733,-60.979 11.562,-60.677C11.218,-60.307 10.737,-60.211 10.285,-60.085C7.182,-59.221 4.184,-58.09 1.328,-56.589C0.926,-56.378 0.512,-56.05 0,-56.338" style="fill:rgb(177,189,56);fill-rule:nonzero;"/>
                            </g>
                            <g transform="matrix(1,0,0,1,34.1277,45.4357)">
                                <path d="M0,73.974C-1.888,74.25 -3.785,74.114 -5.679,74.119C-8.823,73.56 -11.956,72.95 -14.9,71.656C-24.896,67.263 -31.021,59.541 -33.2,49.018C-35.993,35.525 -32.468,23.634 -22.78,13.702C-19.861,10.708 -16.407,8.404 -12.871,6.217C-9.187,4.372 -5.398,2.798 -1.386,1.811C-1.147,1.434 -0.754,1.357 -0.36,1.268C6.572,-0.291 13.365,-0.036 19.94,2.873C22,3.785 23.902,4.962 25.479,6.594C28.225,9.436 28.241,13.179 25.55,16.054C24.729,16.932 23.841,17.702 22.747,18.266C21.461,18.93 20.363,18.734 19.32,17.848C18.619,17.252 17.984,16.586 17.37,15.902C12.817,10.828 7.214,8.011 0.322,7.962C-3.587,8 -7.049,9.306 -10.137,11.664C-13.323,14.061 -15.565,17.199 -17.08,20.834C-20.182,28.276 -20.937,36.011 -19.257,43.874C-17.461,52.28 -12.538,58.318 -4.68,61.902C-2.754,62.668 -0.75,63.123 1.293,63.426C7.357,64.02 12.839,62.409 17.863,59.057C18.728,58.48 19.59,57.901 20.459,57.331C21.076,56.927 21.554,56.989 21.974,57.621C22.328,58.155 22.659,58.7 22.993,59.245C24.034,60.941 24.061,61.066 22.651,62.376C16.581,68.019 9.758,72.312 1.516,74.022C1.007,74.127 0.496,74.265 0,73.974" style="fill:rgb(89,21,104);fill-rule:nonzero;"/>
                            </g>
                            <g transform="matrix(1,0,0,1,29.577,86.4841)">
                                <path d="M0,21.201C0.898,18.229 1.75,15.242 3.153,12.45C5.688,7.405 9.246,3.308 14.182,0.483C15.295,-0.154 16.477,-0.619 17.742,-0.874C20.394,-1.408 22.794,-0.407 24.214,1.902C25.108,3.357 25.595,4.94 25.565,6.67C25.537,8.35 25.146,8.989 23.56,9.508C21.895,10.053 20.161,10.402 18.526,11.019C12.762,13.199 8.381,16.943 5.767,22.609C3.755,22.505 1.851,21.964 0,21.201" style="fill:rgb(177,189,56);fill-rule:nonzero;"/>
                            </g>
                            <g transform="matrix(1,0,0,1,34.3983,71.6)">
                                <path d="M0,-18.496C2.564,-12.587 6.991,-8.582 12.8,-5.998C14.039,-5.446 15.279,-4.883 16.561,-4.445C17.273,-4.2 17.312,-3.897 17.005,-3.332C16.834,-3.017 16.701,-2.682 16.555,-2.353C15.518,-0.022 15.51,0.009 13.078,-0.576C5.544,-2.388 -1.344,-5.482 -7.078,-10.839C-8.369,-12.045 -9.427,-13.451 -10.535,-14.814C-7.425,-17.192 -3.943,-18.505 0,-18.496" style="fill:rgb(177,189,56);fill-rule:nonzero;"/>
                            </g>
                        </g>
                    </g>
                </g>
                <g transform="matrix(0.558149,0,0,0.561937,405.009,98.0623)">
                    <g transform="matrix(1,0,0,1,327.053,67.3744)">
                        <path d="M0,-41.66C-4.065,-30.202 -7.981,-19.212 -11.861,-8.21C-15.394,1.807 -18.964,11.811 -22.333,21.882C-23.062,24.061 -24.179,24.517 -26.256,24.567C-28.486,24.621 -29.042,23.506 -29.63,21.692C-37.069,-1.268 -44.581,-24.205 -52.1,-47.139C-52.775,-49.2 -53.617,-51.205 -54.398,-53.23C-56.114,-57.673 -59.204,-60.393 -64.056,-60.868C-65.895,-61.048 -67.332,-61.439 -67.04,-63.879C-66.746,-66.329 -64.953,-65.469 -63.732,-65.477C-53.444,-65.544 -43.155,-65.53 -32.867,-65.494C-31.689,-65.49 -30.166,-66.096 -30.041,-63.812C-29.923,-61.68 -30.875,-61.039 -32.714,-60.932C-33.557,-60.884 -34.405,-60.777 -35.228,-60.592C-39.78,-59.565 -40.847,-58.15 -39.479,-53.742C-33.76,-35.299 -27.884,-16.905 -21.923,1.954C-19.884,-1.497 -19.168,-4.921 -18.031,-8.156C-11.789,-25.922 -5.641,-43.721 0.509,-61.519C1.088,-63.195 1.558,-64.453 3.878,-64.432C6.092,-64.412 6.73,-63.363 7.381,-61.638C14.919,-41.641 22.507,-21.664 30.09,-1.685C30.496,-0.614 30.622,0.616 32.036,1.777C34.901,-7.3 37.705,-16.094 40.453,-24.906C43.187,-33.667 45.787,-42.468 47.927,-51.398C49.518,-58.039 48.284,-59.833 41.438,-60.827C40.72,-60.931 40.005,-61.09 39.283,-61.139C37.561,-61.258 37.588,-62.424 37.553,-63.717C37.51,-65.262 38.368,-65.517 39.61,-65.516C49.173,-65.506 58.734,-65.496 68.297,-65.526C69.634,-65.53 70.294,-65.132 70.271,-63.679C70.251,-62.385 70.262,-61.12 68.584,-61.058C60.272,-60.753 57.251,-54.935 54.82,-48.238C46.5,-25.307 39.157,-2.053 31.662,21.152C31.115,22.846 30.986,24.525 28.363,24.597C25.744,24.669 24.887,23.531 24.066,21.347C16.559,1.345 8.941,-18.616 1.348,-38.585C1.011,-39.47 0.589,-40.322 0,-41.66" style="fill:rgb(96,36,106);fill-rule:nonzero;"/>
                    </g>
                    <g transform="matrix(1,0,0,1,52.6172,-1.3487)">
                        <path d="M0,93.754C-13.781,93.709 -26.716,90.829 -37.463,81.629C-62.133,60.512 -55.683,20.89 -25.369,7.251C-9.135,-0.054 7.655,0.27 24.762,3.656C29.075,4.51 30.445,6.433 30.806,10.356C31.227,14.923 32.009,19.462 32.784,23.989C33.079,25.711 32.261,26.08 30.899,26.28C29.684,26.459 28.286,27.521 27.81,25.291C22.671,1.217 -11.929,2.9 -24.468,16.096C-36.471,28.729 -39.808,50.801 -31.344,67.875C-25.896,78.866 -17.36,85.879 -5.096,87.983C8.137,90.255 18.707,86.073 26.348,74.905C27.507,73.211 28.755,71.532 29.597,69.68C30.588,67.5 31.921,67.922 33.662,68.455C36.036,69.18 34.921,70.554 34.508,71.836C32.766,77.238 30.714,82.522 28.438,87.723C27.647,89.531 26.509,90.426 24.447,90.823C16.362,92.384 8.279,93.808 0,93.754" style="fill:rgb(96,36,106);fill-rule:nonzero;"/>
                    </g>
                    <g transform="matrix(1,0,0,1,174.027,2.0281)">
                        <path d="M0,88.387C-5.685,88.387 -11.369,88.386 -17.053,88.388C-18.273,88.388 -19.462,88.574 -19.463,86.645C-19.463,85.026 -19.082,84.451 -17.329,84.192C-7.237,82.693 -6.468,81.711 -6.466,71.459C-6.464,53.317 -6.463,35.175 -6.47,17.033C-6.47,15.825 -6.466,14.612 -6.578,13.411C-7.206,6.644 -8.674,5.177 -15.478,4.422C-16.198,4.342 -16.917,4.182 -17.638,4.179C-19.375,4.169 -19.392,3.068 -19.452,1.743C-19.531,-0.004 -18.61,-0.187 -17.218,-0.183C-5.607,-0.155 6.003,-0.155 17.614,-0.181C19.101,-0.184 20.154,-0.066 20.18,1.889C20.206,3.746 19.231,4.158 17.75,4.241C7.133,4.84 7.3,8.76 7.318,16.899C7.359,35.404 7.33,53.908 7.332,72.413C7.333,81.94 8.11,82.823 17.49,84.222C18.535,84.378 20.002,83.823 20.157,85.801C20.326,87.957 19.38,88.453 17.416,88.421C11.612,88.326 5.806,88.387 0,88.387" style="fill:rgb(96,36,106);fill-rule:nonzero;"/>
                    </g>
                    <g transform="matrix(1,0,0,1,496.563,39.2589)">
                        <path d="M0,13.205C-6.765,13.115 -13.532,13.151 -20.298,13.188C-21.914,13.197 -22.877,13.07 -22.05,11.007C-17.976,0.837 -13.992,-9.369 -9.864,-19.848C-8.446,-18.392 -8.263,-16.707 -7.711,-15.219C-4.528,-6.631 -1.447,1.996 1.84,10.543C2.692,12.761 2.214,13.234 0,13.205M37.732,46.675C33.575,46.073 30.471,44.11 28.609,40.362C27.377,37.881 26.244,35.339 25.24,32.758C16.32,9.82 7.36,-13.103 -1.361,-36.117C-2.58,-39.333 -4.092,-39.298 -6.686,-38.402C-8.527,-37.765 -8.76,-36.175 -9.349,-34.789C-18.976,-12.136 -28.628,10.506 -38.152,33.202C-41.056,40.121 -44.134,46.61 -53.006,46.981C-54.639,47.05 -54.421,48.22 -54.477,49.312C-54.55,50.756 -53.87,51.174 -52.524,51.169C-43.089,51.138 -33.652,51.133 -24.216,51.172C-22.771,51.179 -22.404,50.581 -22.366,49.232C-22.266,45.646 -25.232,46.951 -26.803,46.624C-32.708,45.395 -33.813,43.916 -31.932,38.189C-30.126,32.693 -28.003,27.301 -26.209,21.801C-25.607,19.959 -24.703,19.409 -22.837,19.428C-14.369,19.517 -5.9,19.514 2.567,19.43C4.388,19.412 5.366,19.87 6.011,21.717C7.8,26.84 9.843,31.874 11.763,36.952C13.989,42.843 15.299,45.798 6.46,46.819C4.815,47.009 4.252,47.704 4.316,49.399C4.389,51.274 5.507,51.161 6.752,51.159C12.075,51.151 17.397,51.155 22.721,51.156C27.56,51.157 32.403,51.283 37.234,51.08C38.665,51.02 41.104,52.538 41.412,49.309C41.707,46.226 39.216,46.89 37.732,46.675" style="fill:rgb(96,36,106);fill-rule:nonzero;"/>
                    </g>
                </g>
                <g transform="matrix(0.978121,0,0,0.984761,178.764,-123.981)">
                    <path d="M235.385,291.375C236.062,291.558 236.468,291.649 236.601,291.649C236.796,291.649 236.942,291.6 237.039,291.503C237.136,291.406 237.23,291.272 237.321,291.102L237.886,291.102L236.939,295.468L236.355,295.358C236.373,295.097 236.384,294.944 236.387,294.898C236.39,294.853 236.392,294.784 236.392,294.693C236.392,293.709 236.161,292.976 235.699,292.496C235.237,292.016 234.651,291.776 233.94,291.776C232.494,291.776 231.236,292.736 230.167,294.657C229.207,296.37 228.727,298.117 228.727,299.897C228.727,301.192 229.023,302.077 229.615,302.554C230.208,303.031 230.853,303.27 231.552,303.27C232.463,303.27 233.323,302.969 234.131,302.367C234.569,302.039 235.006,301.599 235.444,301.046L236.009,301.456C235.365,302.404 234.599,303.109 233.712,303.57C232.825,304.032 231.926,304.263 231.014,304.263C229.519,304.263 228.284,303.824 227.309,302.946C226.334,302.068 225.846,300.894 225.846,299.423C225.846,297.175 226.594,295.228 228.089,293.581C229.583,291.928 231.358,291.102 233.411,291.102C234.049,291.102 234.707,291.193 235.385,291.375Z" style="fill:rgb(90,37,103);fill-rule:nonzero;"/>
                    <path d="M244.02,296.479C243.905,296.2 243.689,296.06 243.373,296.06C242.699,296.06 242.006,296.859 241.295,298.457C240.669,299.873 240.356,300.958 240.356,301.711C240.356,302.009 240.431,302.267 240.58,302.486C240.729,302.705 240.925,302.814 241.168,302.814C241.787,302.82 242.489,302 243.273,300.353C243.832,298.974 244.112,297.88 244.112,297.072C244.112,296.829 244.081,296.631 244.02,296.479ZM239.7,297.491C240.83,296.015 241.979,295.276 243.145,295.276C243.619,295.276 243.969,295.416 244.194,295.696C244.327,295.866 244.446,296.151 244.549,296.552L244.868,295.559L246.946,295.422L245.625,299.788C245.436,300.408 245.303,300.882 245.224,301.21C245.06,301.836 244.977,302.282 244.977,302.55C244.977,302.659 245.002,302.735 245.05,302.777C245.099,302.82 245.154,302.841 245.214,302.841C245.324,302.841 245.43,302.8 245.533,302.718C245.637,302.636 245.752,302.519 245.88,302.367C245.941,302.3 246.044,302.174 246.19,301.989C246.336,301.804 246.457,301.647 246.554,301.52L246.946,301.802C246.442,302.544 245.96,303.124 245.502,303.543C245.043,303.962 244.579,304.172 244.112,304.172C243.826,304.172 243.55,304.066 243.282,303.853C243.015,303.64 242.881,303.327 242.881,302.914C242.881,302.756 242.96,302.37 243.118,301.757C243.142,301.732 243.12,301.775 243.05,301.884C242.98,301.994 242.872,302.155 242.726,302.367C242.398,302.866 242.011,303.288 241.564,303.634C241.118,303.981 240.621,304.154 240.074,304.154C239.582,304.154 239.123,303.968 238.698,303.598C238.272,303.227 238.06,302.598 238.06,301.711C238.06,300.338 238.607,298.931 239.7,297.491Z" style="fill:rgb(90,37,103);fill-rule:nonzero;"/>
                    <path d="M247.839,302.067C247.876,301.902 247.937,301.662 248.022,301.347L250.227,293.308C250.282,293.101 250.322,292.934 250.346,292.806C250.37,292.679 250.382,292.569 250.382,292.478C250.382,292.205 250.291,292.038 250.109,291.977C249.927,291.916 249.629,291.892 249.216,291.904L249.216,291.403C250.139,291.312 250.764,291.243 251.089,291.198C251.414,291.152 252.084,291.035 253.098,290.847L250.401,300.608C250.267,301.1 250.185,301.413 250.154,301.547C250.045,301.991 249.99,302.285 249.99,302.431C249.99,302.559 250.024,302.644 250.091,302.686C250.158,302.729 250.218,302.75 250.273,302.75C250.455,302.75 250.688,302.592 250.97,302.276C251.253,301.96 251.503,301.62 251.722,301.255L252.132,301.52C251.585,302.358 251.142,302.942 250.802,303.27C250.237,303.817 249.635,304.09 248.997,304.09C248.651,304.09 248.351,303.973 248.099,303.739C247.847,303.505 247.721,303.197 247.721,302.814C247.721,302.656 247.76,302.407 247.839,302.067Z" style="fill:rgb(90,37,103);fill-rule:nonzero;"/>
                    <path d="M257.897,299.264C258.277,298.471 258.467,297.713 258.467,296.99C258.467,296.662 258.4,296.391 258.266,296.179C258.133,295.966 257.914,295.86 257.61,295.86C257.033,295.86 256.569,296.285 256.22,297.136C255.871,297.986 255.696,298.746 255.696,299.414C255.696,299.755 255.775,300.013 255.933,300.189C256.091,300.365 256.292,300.453 256.535,300.453C257.063,300.453 257.517,300.057 257.897,299.264ZM257.587,305.065C257.408,304.895 257.163,304.746 256.854,304.619C256.641,304.534 256.299,304.414 255.828,304.259C255.357,304.104 255.076,304.026 254.985,304.026C254.985,303.935 254.742,304.066 254.256,304.418C253.77,304.77 253.527,305.181 253.527,305.649C253.527,305.94 253.639,306.208 253.864,306.451C254.235,306.864 254.848,307.07 255.705,307.07C256.38,307.07 256.907,306.949 257.286,306.706C257.666,306.463 257.856,306.15 257.856,305.767C257.856,305.469 257.767,305.235 257.587,305.065ZM253.654,303.406C253.375,303.175 253.235,302.869 253.235,302.486C253.235,302.176 253.363,301.895 253.618,301.643C253.873,301.391 254.341,301.082 255.022,300.718C254.517,300.535 254.144,300.259 253.9,299.888C253.657,299.518 253.536,299.071 253.536,298.548C253.536,297.765 253.904,297.023 254.639,296.324C255.374,295.626 256.343,295.276 257.546,295.276C258.172,295.276 258.72,295.377 259.191,295.577C259.662,295.778 259.843,295.878 259.734,295.878L261.812,295.878L261.812,296.935L260.554,296.935C260.59,297.093 260.618,297.23 260.636,297.345C260.654,297.461 260.663,297.591 260.663,297.737C260.663,298.636 260.309,299.407 259.602,300.048C258.894,300.689 257.899,301.009 256.617,301.009C256.337,301.009 256.003,300.976 255.614,300.909C255.517,300.909 255.415,300.985 255.309,301.137C255.202,301.289 255.149,301.419 255.149,301.529C255.149,301.729 255.298,301.909 255.596,302.067C255.736,302.146 255.906,302.215 256.106,302.276L257.1,302.559C257.969,302.808 258.585,303.051 258.95,303.288C259.576,303.689 259.889,304.242 259.889,304.947C259.889,305.737 259.472,306.393 258.64,306.915C257.808,307.438 256.775,307.699 255.541,307.699C254.733,307.699 254.031,307.602 253.436,307.408C252.409,307.079 251.895,306.502 251.895,305.676C251.895,305.141 252.169,304.707 252.716,304.372C253.019,304.19 253.557,303.987 254.329,303.762C254.025,303.652 253.8,303.534 253.654,303.406Z" style="fill:rgb(90,37,103);fill-rule:nonzero;"/>
                    <path d="M267.873,296.479C267.757,296.2 267.542,296.06 267.226,296.06C266.551,296.06 265.859,296.859 265.148,298.457C264.522,299.873 264.209,300.958 264.209,301.711C264.209,302.009 264.283,302.267 264.432,302.486C264.581,302.705 264.777,302.814 265.02,302.814C265.64,302.82 266.342,302 267.125,300.353C267.685,298.974 267.964,297.88 267.964,297.072C267.964,296.829 267.934,296.631 267.873,296.479ZM263.553,297.491C264.683,296.015 265.831,295.276 266.998,295.276C267.472,295.276 267.821,295.416 268.046,295.696C268.18,295.866 268.298,296.151 268.402,296.552L268.721,295.559L270.799,295.422L269.477,299.788C269.289,300.408 269.155,300.882 269.076,301.21C268.912,301.836 268.83,302.282 268.83,302.55C268.83,302.659 268.854,302.735 268.903,302.777C268.951,302.82 269.006,302.841 269.067,302.841C269.176,302.841 269.283,302.8 269.386,302.718C269.489,302.636 269.605,302.519 269.732,302.367C269.793,302.3 269.896,302.174 270.042,301.989C270.188,301.804 270.309,301.647 270.407,301.52L270.799,301.802C270.294,302.544 269.813,303.124 269.354,303.543C268.895,303.962 268.432,304.172 267.964,304.172C267.678,304.172 267.402,304.066 267.135,303.853C266.867,303.64 266.734,303.327 266.734,302.914C266.734,302.756 266.813,302.37 266.971,301.757C266.995,301.732 266.972,301.775 266.902,301.884C266.832,301.994 266.724,302.155 266.579,302.367C266.251,302.866 265.863,303.288 265.417,303.634C264.97,303.981 264.473,304.154 263.926,304.154C263.434,304.154 262.975,303.968 262.55,303.598C262.125,303.227 261.912,302.598 261.912,301.711C261.912,300.338 262.459,298.931 263.553,297.491Z" style="fill:rgb(90,37,103);fill-rule:nonzero;"/>
                    <path d="M271.245,303.889C271.792,302.109 272.239,300.578 272.585,299.296C272.962,297.916 273.15,297.096 273.15,296.835C273.15,296.604 273.074,296.455 272.922,296.388C272.77,296.321 272.509,296.288 272.138,296.288L272.138,295.796C272.916,295.747 273.572,295.683 274.107,295.604C274.453,295.556 275.043,295.453 275.875,295.295L274.836,298.603L274.918,298.621C275.453,297.588 275.881,296.856 276.203,296.425C276.769,295.671 277.312,295.295 277.835,295.295C278.199,295.295 278.468,295.416 278.642,295.659C278.815,295.902 278.901,296.173 278.901,296.47C278.901,296.829 278.806,297.151 278.614,297.436C278.423,297.722 278.157,297.865 277.817,297.865C277.665,297.865 277.524,297.834 277.393,297.774C277.262,297.713 277.151,297.622 277.06,297.5L276.887,297.281C276.857,297.245 276.825,297.215 276.791,297.19C276.758,297.166 276.714,297.154 276.659,297.154C276.422,297.154 276.112,297.476 275.729,298.12C275.347,298.764 275.025,299.42 274.763,300.089C274.581,300.551 274.356,301.207 274.089,302.057C273.822,302.908 273.624,303.519 273.496,303.889L271.245,303.889Z" style="fill:rgb(90,37,103);fill-rule:nonzero;"/>
                    <path d="M281.016,305.489C281.435,304.982 281.645,304.494 281.645,304.026C281.645,303.601 281.526,302.747 281.289,301.465C281.137,300.645 280.976,299.843 280.806,299.059C280.496,297.679 280.267,296.862 280.118,296.607C279.969,296.352 279.679,296.224 279.248,296.224L279.248,295.723C279.825,295.668 280.433,295.583 281.071,295.468C281.709,295.352 281.994,295.301 281.927,295.313L282.055,295.295C282.201,295.726 282.424,296.581 282.725,297.86C283.026,299.139 283.261,300.298 283.431,301.337L283.504,301.775L283.85,301.173C284.136,300.687 284.42,300.104 284.703,299.423C284.985,298.743 285.126,298.284 285.126,298.047C285.126,297.932 285.096,297.821 285.035,297.714C284.975,297.608 284.874,297.506 284.735,297.409L284.589,297.309C284.485,297.236 284.388,297.139 284.297,297.017C284.157,296.817 284.087,296.604 284.087,296.379C284.087,296.112 284.189,295.864 284.393,295.636C284.596,295.408 284.853,295.295 285.163,295.295C285.436,295.295 285.698,295.395 285.947,295.595C286.196,295.796 286.32,296.121 286.32,296.571C286.32,297.312 285.971,298.427 285.272,299.916C284.75,301.021 284.142,302.127 283.449,303.233C282.477,304.77 281.598,305.908 280.811,306.647C280.024,307.385 279.226,307.754 278.418,307.754C278.072,307.754 277.785,307.637 277.557,307.403C277.329,307.169 277.215,306.906 277.215,306.615C277.215,306.305 277.321,306.059 277.534,305.876C277.747,305.694 277.987,305.603 278.254,305.603C278.534,305.603 278.85,305.711 279.202,305.927C279.554,306.142 279.791,306.25 279.913,306.25C280.229,306.25 280.597,305.996 281.016,305.489Z" style="fill:rgb(90,37,103);fill-rule:nonzero;"/>
                    <path d="M290.859,303.415C291.303,303.361 291.631,303.251 291.844,303.087C292.056,302.923 292.233,302.586 292.372,302.076L294.66,293.7C294.727,293.463 294.777,293.264 294.81,293.103C294.844,292.942 294.861,292.8 294.861,292.679C294.861,292.363 294.773,292.164 294.596,292.082C294.42,292 294.052,291.934 293.493,291.886L293.493,291.403L299.044,291.403L299.044,291.886C298.588,291.947 298.259,292.056 298.055,292.214C297.852,292.372 297.68,292.709 297.54,293.226L295.243,301.602L295.098,302.249C295.085,302.31 295.075,302.372 295.066,302.436C295.057,302.499 295.052,302.559 295.052,302.613C295.052,302.929 295.137,303.13 295.307,303.215C295.477,303.3 295.845,303.367 296.41,303.415L296.41,303.889L290.859,303.889L290.859,303.415Z" style="fill:rgb(90,37,103);fill-rule:nonzero;"/>
                    <path d="M298.862,303.889L300.521,297.929C300.618,297.576 300.682,297.329 300.712,297.186C300.742,297.043 300.758,296.905 300.758,296.771C300.758,296.571 300.695,296.446 300.571,296.397C300.446,296.349 300.171,296.312 299.746,296.288L299.746,295.796C300.53,295.747 301.195,295.683 301.742,295.604C302.094,295.556 302.675,295.453 303.483,295.295L302.362,298.749L302.426,298.794C303.24,297.561 303.853,296.735 304.267,296.315C304.941,295.635 305.652,295.295 306.399,295.295C306.746,295.295 307.034,295.402 307.265,295.618C307.496,295.834 307.612,296.13 307.612,296.507C307.612,296.792 307.557,297.13 307.448,297.518C307.387,297.737 307.305,298.011 307.202,298.339C307.84,297.36 308.356,296.674 308.751,296.279C309.407,295.623 310.088,295.295 310.793,295.295C311.267,295.295 311.628,295.421 311.877,295.673C312.126,295.925 312.251,296.282 312.251,296.744C312.251,297.005 312.193,297.354 312.078,297.792C312.066,297.853 312.002,298.071 311.886,298.448L310.893,301.41C310.82,301.617 310.752,301.831 310.688,302.053C310.624,302.275 310.592,302.431 310.592,302.522C310.592,302.607 310.627,302.674 310.697,302.723C310.767,302.771 310.832,302.796 310.893,302.796C311.069,302.796 311.315,302.592 311.631,302.185C311.801,301.966 311.987,301.693 312.187,301.365L312.597,301.629C312.135,302.376 311.744,302.914 311.421,303.242C310.862,303.807 310.273,304.09 309.653,304.09C309.337,304.09 309.043,303.999 308.769,303.817C308.496,303.634 308.359,303.333 308.359,302.914C308.359,302.568 308.441,302.082 308.605,301.456C308.708,301.073 308.845,300.633 309.015,300.134L309.945,297.327C309.957,297.285 309.968,297.24 309.977,297.195C309.986,297.149 309.991,297.105 309.991,297.063C309.991,296.947 309.957,296.85 309.89,296.771C309.817,296.692 309.711,296.653 309.571,296.653C309.182,296.653 308.743,296.978 308.254,297.628C307.765,298.278 307.356,298.949 307.028,299.642C306.907,299.891 306.787,300.195 306.668,300.554C306.55,300.912 306.193,302.024 305.597,303.889L303.355,303.889L305.251,297.847C305.3,297.695 305.339,297.556 305.37,297.432C305.4,297.307 305.415,297.187 305.415,297.072C305.415,296.89 305.379,296.774 305.306,296.726C305.233,296.677 305.151,296.653 305.06,296.653C304.768,296.653 304.382,296.931 303.902,297.487C303.422,298.043 302.966,298.764 302.535,299.651C302.304,300.125 302.052,300.787 301.778,301.638C301.608,302.155 301.383,302.905 301.104,303.889L298.862,303.889Z" style="fill:rgb(90,37,103);fill-rule:nonzero;"/>
                    <path d="M313.381,303.889L315.04,297.929C315.137,297.576 315.201,297.329 315.231,297.186C315.262,297.043 315.277,296.905 315.277,296.771C315.277,296.571 315.215,296.446 315.09,296.397C314.965,296.349 314.691,296.312 314.265,296.288L314.265,295.796C315.049,295.747 315.714,295.683 316.261,295.604C316.614,295.556 317.194,295.453 318.002,295.295L316.881,298.749L316.945,298.794C317.759,297.561 318.373,296.735 318.786,296.315C319.46,295.635 320.171,295.295 320.919,295.295C321.265,295.295 321.554,295.402 321.785,295.618C322.015,295.834 322.131,296.13 322.131,296.507C322.131,296.792 322.076,297.13 321.967,297.518C321.906,297.737 321.824,298.011 321.721,298.339C322.359,297.36 322.875,296.674 323.27,296.279C323.926,295.623 324.607,295.295 325.312,295.295C325.786,295.295 326.147,295.421 326.396,295.673C326.646,295.925 326.77,296.282 326.77,296.744C326.77,297.005 326.712,297.354 326.597,297.792C326.585,297.853 326.521,298.071 326.406,298.448L325.412,301.41C325.339,301.617 325.271,301.831 325.207,302.053C325.143,302.275 325.111,302.431 325.111,302.522C325.111,302.607 325.146,302.674 325.216,302.723C325.286,302.771 325.351,302.796 325.412,302.796C325.588,302.796 325.834,302.592 326.15,302.185C326.32,301.966 326.506,301.693 326.706,301.365L327.116,301.629C326.655,302.376 326.263,302.914 325.941,303.242C325.382,303.807 324.792,304.09 324.173,304.09C323.857,304.09 323.562,303.999 323.288,303.817C323.015,303.634 322.878,303.333 322.878,302.914C322.878,302.568 322.96,302.082 323.124,301.456C323.228,301.073 323.364,300.633 323.535,300.134L324.464,297.327C324.476,297.285 324.487,297.24 324.496,297.195C324.505,297.149 324.51,297.105 324.51,297.063C324.51,296.947 324.476,296.85 324.41,296.771C324.337,296.692 324.23,296.653 324.09,296.653C323.702,296.653 323.263,296.978 322.773,297.628C322.284,298.278 321.876,298.949 321.548,299.642C321.426,299.891 321.306,300.195 321.188,300.554C321.069,300.912 320.712,302.024 320.117,303.889L317.874,303.889L319.77,297.847C319.819,297.695 319.858,297.556 319.889,297.432C319.919,297.307 319.934,297.187 319.934,297.072C319.934,296.89 319.898,296.774 319.825,296.726C319.752,296.677 319.67,296.653 319.579,296.653C319.287,296.653 318.901,296.931 318.421,297.487C317.941,298.043 317.486,298.764 317.054,299.651C316.823,300.125 316.571,300.787 316.298,301.638C316.128,302.155 315.903,302.905 315.623,303.889L313.381,303.889Z" style="fill:rgb(90,37,103);fill-rule:nonzero;"/>
                    <path d="M328.201,302.094C328.244,301.906 328.307,301.656 328.392,301.347L329.514,297.154C329.526,297.105 329.536,297.057 329.545,297.008C329.555,296.959 329.559,296.914 329.559,296.871C329.559,296.622 329.48,296.467 329.322,296.407C329.164,296.346 328.876,296.306 328.456,296.288L328.456,295.796C328.809,295.772 329.321,295.721 329.992,295.645C330.664,295.57 331.139,295.504 331.418,295.449L332.221,295.295L330.771,300.608C330.65,301.064 330.568,301.38 330.525,301.556C330.416,302.006 330.361,302.297 330.361,302.431C330.361,302.565 330.392,302.651 330.452,302.691C330.513,302.73 330.58,302.75 330.653,302.75C330.841,302.75 331.075,302.589 331.355,302.267C331.634,301.945 331.88,301.608 332.093,301.255L332.503,301.52C331.895,302.413 331.431,303.014 331.109,303.324C330.58,303.835 330.015,304.09 329.413,304.09C329.073,304.09 328.768,303.985 328.497,303.776C328.227,303.566 328.092,303.245 328.092,302.814C328.092,302.662 328.128,302.422 328.201,302.094ZM332.585,291.494C332.828,291.737 332.95,292.032 332.95,292.378C332.95,292.724 332.828,293.021 332.585,293.267C332.342,293.513 332.047,293.636 331.701,293.636C331.355,293.636 331.058,293.513 330.812,293.267C330.566,293.021 330.443,292.724 330.443,292.378C330.443,292.032 330.566,291.737 330.812,291.494C331.058,291.251 331.355,291.129 331.701,291.129C332.047,291.129 332.342,291.251 332.585,291.494Z" style="fill:rgb(90,37,103);fill-rule:nonzero;"/>
                    <path d="M338.268,299.264C338.648,298.471 338.838,297.713 338.838,296.99C338.838,296.662 338.771,296.391 338.637,296.179C338.503,295.966 338.285,295.86 337.981,295.86C337.404,295.86 336.94,296.285 336.591,297.136C336.242,297.986 336.067,298.746 336.067,299.414C336.067,299.755 336.146,300.013 336.304,300.189C336.462,300.365 336.662,300.453 336.905,300.453C337.434,300.453 337.888,300.057 338.268,299.264ZM337.958,305.065C337.779,304.895 337.534,304.746 337.224,304.619C337.012,304.534 336.67,304.414 336.199,304.259C335.728,304.104 335.447,304.026 335.356,304.026C335.356,303.935 335.113,304.066 334.627,304.418C334.141,304.77 333.898,305.181 333.898,305.649C333.898,305.94 334.01,306.208 334.235,306.451C334.605,306.864 335.219,307.07 336.076,307.07C336.75,307.07 337.278,306.949 337.657,306.706C338.037,306.463 338.227,306.15 338.227,305.767C338.227,305.469 338.137,305.235 337.958,305.065ZM334.025,303.406C333.746,303.175 333.606,302.869 333.606,302.486C333.606,302.176 333.734,301.895 333.989,301.643C334.244,301.391 334.712,301.082 335.392,300.718C334.888,300.535 334.514,300.259 334.271,299.888C334.028,299.518 333.907,299.071 333.907,298.548C333.907,297.765 334.274,297.023 335.01,296.324C335.745,295.626 336.714,295.276 337.917,295.276C338.543,295.276 339.091,295.377 339.562,295.577C340.033,295.778 340.214,295.878 340.105,295.878L342.183,295.878L342.183,296.935L340.925,296.935C340.961,297.093 340.989,297.23 341.007,297.345C341.025,297.461 341.034,297.591 341.034,297.737C341.034,298.636 340.68,299.407 339.972,300.048C339.264,300.689 338.269,301.009 336.987,301.009C336.708,301.009 336.374,300.976 335.985,300.909C335.888,300.909 335.786,300.985 335.679,301.137C335.573,301.289 335.52,301.419 335.52,301.529C335.52,301.729 335.669,301.909 335.967,302.067C336.106,302.146 336.276,302.215 336.477,302.276L337.47,302.559C338.339,302.808 338.956,303.051 339.321,303.288C339.947,303.689 340.259,304.242 340.259,304.947C340.259,305.737 339.843,306.393 339.011,306.915C338.178,307.438 337.145,307.699 335.912,307.699C335.104,307.699 334.402,307.602 333.806,307.408C332.78,307.079 332.266,306.502 332.266,305.676C332.266,305.141 332.54,304.707 333.086,304.372C333.39,304.19 333.928,303.987 334.7,303.762C334.396,303.652 334.171,303.534 334.025,303.406Z" style="fill:rgb(90,37,103);fill-rule:nonzero;"/>
                    <path d="M342.283,303.889C342.83,302.109 343.276,300.578 343.623,299.296C343.999,297.916 344.188,297.096 344.188,296.835C344.188,296.604 344.112,296.455 343.96,296.388C343.808,296.321 343.547,296.288 343.176,296.288L343.176,295.796C343.954,295.747 344.61,295.683 345.145,295.604C345.491,295.556 346.081,295.453 346.913,295.295L345.874,298.603L345.956,298.621C346.491,297.588 346.919,296.856 347.241,296.425C347.806,295.671 348.35,295.295 348.873,295.295C349.237,295.295 349.506,295.416 349.679,295.659C349.852,295.902 349.939,296.173 349.939,296.47C349.939,296.829 349.843,297.151 349.652,297.436C349.46,297.722 349.195,297.865 348.854,297.865C348.702,297.865 348.561,297.834 348.431,297.774C348.3,297.713 348.189,297.622 348.098,297.5L347.925,297.281C347.894,297.245 347.862,297.215 347.829,297.19C347.796,297.166 347.751,297.154 347.697,297.154C347.46,297.154 347.15,297.476 346.767,298.12C346.384,298.764 346.062,299.42 345.801,300.089C345.619,300.551 345.394,301.207 345.127,302.057C344.859,302.908 344.662,303.519 344.534,303.889L342.283,303.889Z" style="fill:rgb(90,37,103);fill-rule:nonzero;"/>
                    <path d="M355.508,296.479C355.392,296.2 355.177,296.06 354.861,296.06C354.186,296.06 353.494,296.859 352.783,298.457C352.157,299.873 351.844,300.958 351.844,301.711C351.844,302.009 351.918,302.267 352.067,302.486C352.216,302.705 352.412,302.814 352.655,302.814C353.275,302.82 353.977,302 354.76,300.353C355.319,298.974 355.599,297.88 355.599,297.072C355.599,296.829 355.569,296.631 355.508,296.479ZM351.188,297.491C352.318,296.015 353.466,295.276 354.633,295.276C355.107,295.276 355.456,295.416 355.681,295.696C355.815,295.866 355.933,296.151 356.036,296.552L356.355,295.559L358.434,295.422L357.112,299.788C356.924,300.408 356.79,300.882 356.711,301.21C356.547,301.836 356.465,302.282 356.465,302.55C356.465,302.659 356.489,302.735 356.538,302.777C356.586,302.82 356.641,302.841 356.702,302.841C356.811,302.841 356.918,302.8 357.021,302.718C357.124,302.636 357.24,302.519 357.367,302.367C357.428,302.3 357.531,302.174 357.677,301.989C357.823,301.804 357.944,301.647 358.042,301.52L358.434,301.802C357.929,302.544 357.448,303.124 356.989,303.543C356.53,303.962 356.067,304.172 355.599,304.172C355.313,304.172 355.037,304.066 354.77,303.853C354.502,303.64 354.369,303.327 354.369,302.914C354.369,302.756 354.448,302.37 354.606,301.757C354.63,301.732 354.607,301.775 354.537,301.884C354.467,301.994 354.359,302.155 354.214,302.367C353.885,302.866 353.498,303.288 353.052,303.634C352.605,303.981 352.108,304.154 351.561,304.154C351.069,304.154 350.61,303.968 350.185,303.598C349.76,303.227 349.547,302.598 349.547,301.711C349.547,300.338 350.094,298.931 351.188,297.491Z" style="fill:rgb(90,37,103);fill-rule:nonzero;"/>
                    <path d="M359.163,303.889L360.831,297.929C360.897,297.686 360.946,297.494 360.976,297.354C361.037,297.093 361.068,296.911 361.068,296.808C361.068,296.583 360.998,296.443 360.858,296.388C360.718,296.334 360.448,296.3 360.047,296.288L360.047,295.796C360.825,295.747 361.429,295.693 361.861,295.632C362.292,295.571 362.936,295.459 363.793,295.295L362.663,298.749L362.708,298.776C362.678,298.807 362.86,298.529 363.255,297.942C363.65,297.356 364.027,296.88 364.385,296.516C364.738,296.145 365.107,295.849 365.493,295.627C365.879,295.405 366.284,295.295 366.709,295.295C367.104,295.295 367.44,295.407 367.717,295.632C367.993,295.857 368.131,296.224 368.131,296.735C368.131,297.209 367.858,298.254 367.311,299.87C366.758,301.48 366.482,302.343 366.482,302.458C366.482,302.568 366.515,302.651 366.582,302.709C366.649,302.767 366.716,302.796 366.782,302.796C366.946,302.796 367.189,302.589 367.512,302.176C367.682,301.957 367.867,301.687 368.067,301.365L368.478,301.629C368.016,302.376 367.624,302.914 367.302,303.242C366.743,303.807 366.15,304.09 365.525,304.09C365.19,304.09 364.891,303.993 364.627,303.798C364.362,303.604 364.23,303.297 364.23,302.878C364.23,302.61 364.294,302.221 364.422,301.711C364.549,301.201 364.704,300.675 364.887,300.134L365.816,297.345C365.834,297.278 365.85,297.221 365.862,297.172C365.874,297.124 365.88,297.075 365.88,297.026C365.88,296.887 365.833,296.789 365.739,296.735C365.645,296.68 365.543,296.653 365.433,296.653C365.051,296.653 364.625,296.949 364.157,297.541C363.69,298.134 363.307,298.725 363.009,299.314C362.687,299.952 362.417,300.599 362.198,301.255C361.979,301.912 361.718,302.79 361.414,303.889L359.163,303.889Z" style="fill:rgb(90,37,103);fill-rule:nonzero;"/>
                    <path d="M369.457,302.313C369.497,302.106 369.577,301.784 369.699,301.347L371.103,296.288L370.155,296.288L370.155,295.641C370.768,295.392 371.285,295.118 371.704,294.821C372.445,294.298 373.065,293.627 373.563,292.806L374.238,292.806L373.5,295.513L374.839,295.513L374.839,296.288L373.281,296.288L372.078,300.608C371.968,300.991 371.883,301.31 371.823,301.565C371.719,302.003 371.668,302.304 371.668,302.468C371.668,302.583 371.703,302.659 371.772,302.695C371.842,302.732 371.902,302.75 371.95,302.75C372.126,302.75 372.353,302.598 372.629,302.294C372.906,301.991 373.159,301.644 373.39,301.255L373.8,301.52C373.248,302.358 372.804,302.942 372.47,303.27C371.905,303.817 371.306,304.09 370.674,304.09C370.31,304.09 370.006,303.97 369.763,303.73C369.52,303.49 369.398,303.185 369.398,302.814C369.398,302.686 369.418,302.519 369.457,302.313Z" style="fill:rgb(90,37,103);fill-rule:nonzero;"/>
                    <path d="M385.039,291.403L385.039,291.886C384.716,291.892 384.476,291.937 384.318,292.022C384.039,292.168 383.899,292.448 383.899,292.861C383.899,292.904 383.901,292.945 383.904,292.984C383.907,293.024 383.911,293.08 383.917,293.153L384.647,299.615L387.436,293.873C387.454,293.8 387.463,293.742 387.463,293.7C387.463,292.946 387.326,292.436 387.053,292.168C386.883,292.01 386.57,291.907 386.114,291.858L386.114,291.403L391.127,291.403L391.127,291.886C390.702,291.91 390.401,291.983 390.225,292.105C390.048,292.226 389.96,292.487 389.96,292.888C389.96,292.973 389.966,293.092 389.979,293.244C389.997,293.493 390.027,293.803 390.07,294.173L390.699,299.615L393.597,293.563C393.664,293.417 393.726,293.261 393.784,293.093C393.841,292.926 393.87,292.761 393.87,292.597C393.87,292.293 393.769,292.097 393.565,292.009C393.361,291.921 393.074,291.88 392.704,291.886L392.704,291.403L396.185,291.403L396.185,291.858C395.888,291.889 395.651,291.965 395.474,292.086C395.177,292.293 394.894,292.673 394.627,293.226L389.295,304.236L388.757,304.236L387.627,295.167L383.289,304.236L382.751,304.236L381.302,293.417C381.217,292.773 381.092,292.366 380.928,292.196C380.764,292.026 380.405,291.913 379.852,291.858L379.852,291.403L385.039,291.403Z" style="fill:rgb(90,37,103);fill-rule:nonzero;"/>
                    <path d="M403.039,295.723C403.914,296.221 404.352,297.069 404.352,298.266C404.352,299.59 403.848,300.876 402.839,302.121C401.739,303.476 400.481,304.154 399.066,304.154C398.342,304.154 397.657,303.929 397.01,303.479C396.363,303.03 396.04,302.27 396.04,301.201C396.04,299.87 396.541,298.582 397.543,297.336C398.643,295.975 399.91,295.295 401.344,295.295C401.976,295.295 402.541,295.437 403.039,295.723ZM398.382,303.051C398.534,303.397 398.819,303.57 399.239,303.57C400.017,303.57 400.715,302.677 401.335,300.891C401.852,299.39 402.11,298.093 402.11,296.999C402.11,296.707 402.073,296.479 402,296.315C401.861,296.012 401.599,295.86 401.217,295.86C400.323,295.86 399.573,296.808 398.965,298.703C398.497,300.143 398.264,301.34 398.264,302.294C398.264,302.616 398.303,302.869 398.382,303.051Z" style="fill:rgb(90,37,103);fill-rule:nonzero;"/>
                    <path d="M405.181,303.889L406.84,297.929C406.937,297.576 407.001,297.329 407.032,297.186C407.062,297.043 407.077,296.905 407.077,296.771C407.077,296.571 407.015,296.446 406.89,296.397C406.766,296.349 406.491,296.312 406.065,296.288L406.065,295.796C406.849,295.747 407.515,295.683 408.061,295.604C408.414,295.556 408.994,295.453 409.802,295.295L408.681,298.749L408.745,298.794C409.559,297.561 410.173,296.735 410.586,296.315C411.261,295.635 411.972,295.295 412.719,295.295C413.065,295.295 413.354,295.402 413.585,295.618C413.816,295.834 413.931,296.13 413.931,296.507C413.931,296.792 413.876,297.13 413.767,297.518C413.706,297.737 413.624,298.011 413.521,298.339C414.159,297.36 414.675,296.674 415.07,296.279C415.727,295.623 416.407,295.295 417.112,295.295C417.586,295.295 417.948,295.421 418.197,295.673C418.446,295.925 418.57,296.282 418.57,296.744C418.57,297.005 418.513,297.354 418.397,297.792C418.385,297.853 418.321,298.071 418.206,298.448L417.212,301.41C417.139,301.617 417.071,301.831 417.007,302.053C416.943,302.275 416.912,302.431 416.912,302.522C416.912,302.607 416.947,302.674 417.016,302.723C417.086,302.771 417.152,302.796 417.212,302.796C417.389,302.796 417.635,302.592 417.951,302.185C418.121,301.966 418.306,301.693 418.507,301.365L418.917,301.629C418.455,302.376 418.063,302.914 417.741,303.242C417.182,303.807 416.593,304.09 415.973,304.09C415.657,304.09 415.362,303.999 415.089,303.817C414.815,303.634 414.679,303.333 414.679,302.914C414.679,302.568 414.761,302.082 414.925,301.456C415.028,301.073 415.165,300.633 415.335,300.134L416.264,297.327C416.277,297.285 416.287,297.24 416.296,297.195C416.305,297.149 416.31,297.105 416.31,297.063C416.31,296.947 416.277,296.85 416.21,296.771C416.137,296.692 416.031,296.653 415.891,296.653C415.502,296.653 415.063,296.978 414.574,297.628C414.085,298.278 413.676,298.949 413.348,299.642C413.226,299.891 413.106,300.195 412.988,300.554C412.869,300.912 412.512,302.024 411.917,303.889L409.675,303.889L411.571,297.847C411.619,297.695 411.659,297.556 411.689,297.432C411.719,297.307 411.735,297.187 411.735,297.072C411.735,296.89 411.698,296.774 411.625,296.726C411.552,296.677 411.47,296.653 411.379,296.653C411.087,296.653 410.702,296.931 410.222,297.487C409.742,298.043 409.286,298.764 408.854,299.651C408.624,300.125 408.371,300.787 408.098,301.638C407.928,302.155 407.703,302.905 407.423,303.889L405.181,303.889Z" style="fill:rgb(90,37,103);fill-rule:nonzero;"/>
                    <path d="M425.37,296.101C425.291,295.952 425.148,295.878 424.941,295.878C424.504,295.878 424.074,296.23 423.652,296.935C423.229,297.64 422.854,298.627 422.526,299.897C423.602,299.654 424.364,299.186 424.814,298.494C425.263,297.801 425.488,297.184 425.488,296.643C425.488,296.431 425.449,296.25 425.37,296.101ZM421.496,297.236C422.614,295.923 423.842,295.267 425.178,295.267C425.756,295.267 426.234,295.41 426.614,295.696C426.994,295.981 427.183,296.385 427.183,296.908C427.183,297.698 426.74,298.445 425.853,299.15C424.966,299.855 423.814,300.304 422.398,300.499C422.362,300.687 422.335,300.863 422.316,301.028C422.298,301.192 422.289,301.325 422.289,301.429C422.289,301.811 422.344,302.112 422.453,302.331C422.648,302.738 423.021,302.942 423.574,302.942C424.024,302.942 424.47,302.711 424.914,302.249C425.151,302.006 425.406,301.669 425.68,301.237L426.226,301.556C425.759,302.34 425.318,302.914 424.905,303.279C424.249,303.862 423.48,304.154 422.599,304.154C421.943,304.154 421.324,303.915 420.744,303.438C420.164,302.961 419.874,302.234 419.874,301.255C419.874,299.846 420.415,298.506 421.496,297.236Z" style="fill:rgb(90,37,103);fill-rule:nonzero;"/>
                    <path d="M428.131,303.889L429.799,297.929C429.866,297.686 429.915,297.494 429.945,297.354C430.006,297.093 430.036,296.911 430.036,296.808C430.036,296.583 429.966,296.443 429.827,296.388C429.687,296.334 429.417,296.3 429.015,296.288L429.015,295.796C429.793,295.747 430.398,295.693 430.829,295.632C431.261,295.571 431.905,295.459 432.762,295.295L431.631,298.749L431.677,298.776C431.647,298.807 431.829,298.529 432.224,297.942C432.619,297.356 432.995,296.88 433.354,296.516C433.706,296.145 434.076,295.849 434.461,295.627C434.847,295.405 435.253,295.295 435.678,295.295C436.073,295.295 436.409,295.407 436.685,295.632C436.962,295.857 437.1,296.224 437.1,296.735C437.1,297.209 436.827,298.254 436.28,299.87C435.727,301.48 435.45,302.343 435.45,302.458C435.45,302.568 435.484,302.651 435.551,302.709C435.617,302.767 435.684,302.796 435.751,302.796C435.915,302.796 436.158,302.589 436.48,302.176C436.65,301.957 436.836,301.687 437.036,301.365L437.446,301.629C436.985,302.376 436.593,302.914 436.271,303.242C435.712,303.807 435.119,304.09 434.493,304.09C434.159,304.09 433.86,303.993 433.595,303.798C433.331,303.604 433.199,303.297 433.199,302.878C433.199,302.61 433.263,302.221 433.39,301.711C433.518,301.201 433.673,300.675 433.855,300.134L434.785,297.345C434.803,297.278 434.818,297.221 434.83,297.172C434.843,297.124 434.849,297.075 434.849,297.026C434.849,296.887 434.802,296.789 434.707,296.735C434.613,296.68 434.511,296.653 434.402,296.653C434.019,296.653 433.594,296.949 433.126,297.541C432.658,298.134 432.275,298.725 431.978,299.314C431.656,299.952 431.385,300.599 431.166,301.255C430.948,301.912 430.686,302.79 430.383,303.889L428.131,303.889Z" style="fill:rgb(90,37,103);fill-rule:nonzero;"/>
                    <path d="M441.949,291.521C442.022,291.679 442.058,291.895 442.058,292.168C442.058,292.369 442.026,292.708 441.962,293.185C441.899,293.662 441.721,294.897 441.429,296.89L440.937,296.89L440.354,292.916C440.336,292.806 440.323,292.709 440.317,292.624C440.311,292.539 440.308,292.442 440.308,292.332C440.308,292.004 440.345,291.752 440.418,291.576C440.545,291.26 440.797,291.102 441.174,291.102C441.557,291.102 441.815,291.242 441.949,291.521Z" style="fill:rgb(90,37,103);fill-rule:nonzero;"/>
                    <path d="M443.963,301.046L444.455,301.082C444.546,302 444.78,302.644 445.157,303.014C445.534,303.385 445.904,303.57 446.269,303.57C446.585,303.57 446.837,303.47 447.026,303.27C447.214,303.069 447.308,302.832 447.308,302.559C447.308,302.31 447.225,302.036 447.057,301.738C446.89,301.441 446.694,301.152 446.47,300.873L445.777,300.007C445.473,299.679 445.215,299.296 445.002,298.858C444.789,298.421 444.683,297.983 444.683,297.546C444.683,296.926 444.917,296.391 445.385,295.942C445.853,295.492 446.488,295.267 447.29,295.267C447.618,295.267 447.964,295.337 448.329,295.477C448.693,295.617 448.933,295.686 449.049,295.686C449.195,295.686 449.304,295.653 449.377,295.586C449.45,295.519 449.517,295.422 449.578,295.295L450.115,295.295L449.687,298.147L449.186,298.102C449.07,297.312 448.856,296.744 448.543,296.397C448.23,296.051 447.901,295.878 447.554,295.878C447.208,295.878 446.954,295.981 446.793,296.188C446.632,296.394 446.552,296.622 446.552,296.871C446.552,297.09 446.611,297.304 446.729,297.514C446.848,297.724 447.077,298.044 447.417,298.475L448.329,299.642C448.529,299.897 448.709,300.206 448.867,300.567C449.025,300.929 449.104,301.289 449.104,301.647C449.104,302.401 448.833,303.007 448.292,303.466C447.752,303.924 447.092,304.154 446.315,304.154C445.987,304.154 445.636,304.088 445.262,303.958C444.888,303.827 444.662,303.762 444.583,303.762C444.431,303.762 444.316,303.801 444.237,303.88C444.158,303.959 444.094,304.05 444.045,304.154L443.553,304.154L443.963,301.046Z" style="fill:rgb(90,37,103);fill-rule:nonzero;"/>
                    <path d="M461.918,299.268L461.226,294.729L458.464,299.268L461.918,299.268ZM454.189,303.443C454.536,303.34 454.791,303.227 454.955,303.106C455.198,302.929 455.469,302.601 455.766,302.121L462.693,291.147L463.176,291.147L464.963,301.82C465.084,302.537 465.23,302.976 465.4,303.137C465.57,303.299 465.944,303.4 466.521,303.443L466.521,303.889L460.861,303.889L460.861,303.443C461.396,303.4 461.774,303.314 461.996,303.183C462.218,303.052 462.329,302.781 462.329,302.367C462.329,302.228 462.295,301.893 462.228,301.365C462.216,301.255 462.155,300.803 462.046,300.007L458.027,300.007L456.933,301.902C456.86,302.03 456.795,302.17 456.737,302.322C456.679,302.474 456.65,302.619 456.65,302.759C456.65,303.014 456.728,303.179 456.883,303.251C457.038,303.324 457.361,303.388 457.853,303.443L457.853,303.889L454.189,303.889L454.189,303.443Z" style="fill:rgb(90,37,103);fill-rule:nonzero;"/>
                    <path d="M468.344,301.046L468.836,301.082C468.927,302 469.161,302.644 469.538,303.014C469.915,303.385 470.286,303.57 470.65,303.57C470.966,303.57 471.218,303.47 471.407,303.27C471.595,303.069 471.689,302.832 471.689,302.559C471.689,302.31 471.606,302.036 471.438,301.738C471.271,301.441 471.075,301.152 470.851,300.873L470.158,300.007C469.854,299.679 469.596,299.296 469.383,298.858C469.171,298.421 469.064,297.983 469.064,297.546C469.064,296.926 469.298,296.391 469.766,295.942C470.234,295.492 470.869,295.267 471.671,295.267C471.999,295.267 472.345,295.337 472.71,295.477C473.075,295.617 473.315,295.686 473.43,295.686C473.576,295.686 473.685,295.653 473.758,295.586C473.831,295.519 473.898,295.422 473.959,295.295L474.496,295.295L474.068,298.147L473.567,298.102C473.451,297.312 473.237,296.744 472.924,296.397C472.611,296.051 472.282,295.878 471.935,295.878C471.589,295.878 471.335,295.981 471.174,296.188C471.013,296.394 470.933,296.622 470.933,296.871C470.933,297.09 470.992,297.304 471.11,297.514C471.229,297.724 471.458,298.044 471.798,298.475L472.71,299.642C472.91,299.897 473.09,300.206 473.248,300.567C473.406,300.929 473.485,301.289 473.485,301.647C473.485,302.401 473.214,303.007 472.673,303.466C472.133,303.924 471.473,304.154 470.696,304.154C470.368,304.154 470.017,304.088 469.643,303.958C469.269,303.827 469.043,303.762 468.964,303.762C468.812,303.762 468.697,303.801 468.618,303.88C468.539,303.959 468.475,304.05 468.426,304.154L467.934,304.154L468.344,301.046Z" style="fill:rgb(90,37,103);fill-rule:nonzero;"/>
                    <path d="M475.608,301.046L476.1,301.082C476.192,302 476.426,302.644 476.802,303.014C477.179,303.385 477.55,303.57 477.914,303.57C478.23,303.57 478.482,303.47 478.671,303.27C478.859,303.069 478.953,302.832 478.953,302.559C478.953,302.31 478.87,302.036 478.703,301.738C478.536,301.441 478.34,301.152 478.115,300.873L477.422,300.007C477.118,299.679 476.86,299.296 476.647,298.858C476.435,298.421 476.328,297.983 476.328,297.546C476.328,296.926 476.562,296.391 477.03,295.942C477.498,295.492 478.133,295.267 478.935,295.267C479.263,295.267 479.61,295.337 479.974,295.477C480.339,295.617 480.579,295.686 480.694,295.686C480.84,295.686 480.949,295.653 481.022,295.586C481.095,295.519 481.162,295.422 481.223,295.295L481.761,295.295L481.332,298.147L480.831,298.102C480.715,297.312 480.501,296.744 480.188,296.397C479.875,296.051 479.546,295.878 479.199,295.878C478.853,295.878 478.599,295.981 478.438,296.188C478.277,296.394 478.197,296.622 478.197,296.871C478.197,297.09 478.256,297.304 478.375,297.514C478.493,297.724 478.722,298.044 479.063,298.475L479.974,299.642C480.175,299.897 480.354,300.206 480.512,300.567C480.67,300.929 480.749,301.289 480.749,301.647C480.749,302.401 480.478,303.007 479.938,303.466C479.397,303.924 478.738,304.154 477.96,304.154C477.632,304.154 477.281,304.088 476.907,303.958C476.533,303.827 476.307,303.762 476.228,303.762C476.076,303.762 475.961,303.801 475.882,303.88C475.803,303.959 475.739,304.05 475.69,304.154L475.198,304.154L475.608,301.046Z" style="fill:rgb(90,37,103);fill-rule:nonzero;"/>
                    <path d="M489.654,295.723C490.529,296.221 490.966,297.069 490.966,298.266C490.966,299.59 490.462,300.876 489.453,302.121C488.353,303.476 487.095,304.154 485.68,304.154C484.957,304.154 484.272,303.929 483.624,303.479C482.977,303.03 482.654,302.27 482.654,301.201C482.654,299.87 483.155,298.582 484.158,297.336C485.257,295.975 486.524,295.295 487.958,295.295C488.59,295.295 489.155,295.437 489.654,295.723ZM484.996,303.051C485.148,303.397 485.434,303.57 485.853,303.57C486.631,303.57 487.329,302.677 487.949,300.891C488.466,299.39 488.724,298.093 488.724,296.999C488.724,296.707 488.687,296.479 488.615,296.315C488.475,296.012 488.214,295.86 487.831,295.86C486.938,295.86 486.187,296.808 485.579,298.703C485.112,300.143 484.878,301.34 484.878,302.294C484.878,302.616 484.917,302.869 484.996,303.051Z" style="fill:rgb(90,37,103);fill-rule:nonzero;"/>
                    <path d="M493.618,297.199C494.736,295.917 495.952,295.276 497.264,295.276C497.963,295.276 498.49,295.448 498.845,295.791C499.201,296.135 499.379,296.522 499.379,296.953C499.379,297.354 499.26,297.672 499.023,297.906C498.786,298.14 498.507,298.257 498.185,298.257C497.942,298.257 497.705,298.173 497.474,298.006C497.243,297.839 497.127,297.591 497.127,297.263C497.127,297.13 497.141,297.026 497.168,296.953C497.196,296.88 497.255,296.768 497.346,296.616L497.428,296.479C497.471,296.413 497.5,296.361 497.515,296.324C497.53,296.288 497.538,296.249 497.538,296.206C497.538,296.103 497.489,296.022 497.392,295.964C497.295,295.907 497.179,295.878 497.045,295.878C496.377,295.878 495.742,296.571 495.14,297.956C494.606,299.189 494.338,300.259 494.338,301.164C494.338,301.577 494.417,301.936 494.575,302.24C494.812,302.708 495.201,302.942 495.742,302.942C496.143,302.942 496.527,302.794 496.895,302.499C497.263,302.205 497.629,301.79 497.993,301.255L498.513,301.602C497.911,302.44 497.416,303.021 497.027,303.343C496.365,303.883 495.593,304.154 494.712,304.154C494.044,304.154 493.419,303.917 492.839,303.443C492.259,302.969 491.969,302.24 491.969,301.255C491.969,299.815 492.519,298.463 493.618,297.199Z" style="fill:rgb(90,37,103);fill-rule:nonzero;"/>
                    <path d="M500.381,302.094C500.424,301.906 500.488,301.656 500.573,301.347L501.694,297.154C501.706,297.105 501.717,297.057 501.726,297.008C501.735,296.959 501.739,296.914 501.739,296.871C501.739,296.622 501.66,296.467 501.502,296.407C501.344,296.346 501.056,296.306 500.636,296.288L500.636,295.796C500.989,295.772 501.501,295.721 502.172,295.645C502.844,295.57 503.319,295.504 503.599,295.449L504.401,295.295L502.952,300.608C502.83,301.064 502.748,301.38 502.705,301.556C502.596,302.006 502.541,302.297 502.541,302.431C502.541,302.565 502.572,302.651 502.633,302.691C502.693,302.73 502.76,302.75 502.833,302.75C503.021,302.75 503.255,302.589 503.535,302.267C503.814,301.945 504.06,301.608 504.273,301.255L504.683,301.52C504.076,302.413 503.611,303.014 503.289,303.324C502.76,303.835 502.195,304.09 501.593,304.09C501.253,304.09 500.948,303.985 500.677,303.776C500.407,303.566 500.272,303.245 500.272,302.814C500.272,302.662 500.308,302.422 500.381,302.094ZM504.765,291.494C505.008,291.737 505.13,292.032 505.13,292.378C505.13,292.724 505.008,293.021 504.765,293.267C504.522,293.513 504.228,293.636 503.881,293.636C503.535,293.636 503.239,293.513 502.993,293.267C502.746,293.021 502.623,292.724 502.623,292.378C502.623,292.032 502.746,291.737 502.993,291.494C503.239,291.251 503.535,291.129 503.881,291.129C504.228,291.129 504.522,291.251 504.765,291.494Z" style="fill:rgb(90,37,103);fill-rule:nonzero;"/>
                    <path d="M511.091,296.479C510.975,296.2 510.76,296.06 510.444,296.06C509.769,296.06 509.076,296.859 508.365,298.457C507.74,299.873 507.427,300.958 507.427,301.711C507.427,302.009 507.501,302.267 507.65,302.486C507.799,302.705 507.995,302.814 508.238,302.814C508.858,302.82 509.559,302 510.343,300.353C510.902,298.974 511.182,297.88 511.182,297.072C511.182,296.829 511.151,296.631 511.091,296.479ZM506.77,297.491C507.901,296.015 509.049,295.276 510.216,295.276C510.69,295.276 511.039,295.416 511.264,295.696C511.398,295.866 511.516,296.151 511.619,296.552L511.938,295.559L514.016,295.422L512.695,299.788C512.506,300.408 512.373,300.882 512.294,301.21C512.13,301.836 512.048,302.282 512.048,302.55C512.048,302.659 512.072,302.735 512.121,302.777C512.169,302.82 512.224,302.841 512.285,302.841C512.394,302.841 512.5,302.8 512.604,302.718C512.707,302.636 512.822,302.519 512.95,302.367C513.011,302.3 513.114,302.174 513.26,301.989C513.406,301.804 513.527,301.647 513.624,301.52L514.016,301.802C513.512,302.544 513.031,303.124 512.572,303.543C512.113,303.962 511.65,304.172 511.182,304.172C510.896,304.172 510.62,304.066 510.352,303.853C510.085,303.64 509.951,303.327 509.951,302.914C509.951,302.756 510.03,302.37 510.188,301.757C510.213,301.732 510.19,301.775 510.12,301.884C510.05,301.994 509.942,302.155 509.796,302.367C509.468,302.866 509.081,303.288 508.634,303.634C508.188,303.981 507.691,304.154 507.144,304.154C506.652,304.154 506.193,303.968 505.768,303.598C505.343,303.227 505.13,302.598 505.13,301.711C505.13,300.338 505.677,298.931 506.77,297.491Z" style="fill:rgb(90,37,103);fill-rule:nonzero;"/>
                    <path d="M514.659,302.313C514.698,302.106 514.779,301.784 514.9,301.347L516.304,296.288L515.356,296.288L515.356,295.641C515.97,295.392 516.486,295.118 516.906,294.821C517.647,294.298 518.267,293.627 518.765,292.806L519.439,292.806L518.701,295.513L520.041,295.513L520.041,296.288L518.482,296.288L517.279,300.608C517.17,300.991 517.085,301.31 517.024,301.565C516.921,302.003 516.869,302.304 516.869,302.468C516.869,302.583 516.904,302.659 516.974,302.695C517.044,302.732 517.103,302.75 517.152,302.75C517.328,302.75 517.554,302.598 517.831,302.294C518.107,301.991 518.361,301.644 518.592,301.255L519.002,301.52C518.449,302.358 518.005,302.942 517.671,303.27C517.106,303.817 516.508,304.09 515.876,304.09C515.511,304.09 515.207,303.97 514.964,303.73C514.721,303.49 514.6,303.185 514.6,302.814C514.6,302.686 514.619,302.519 514.659,302.313Z" style="fill:rgb(90,37,103);fill-rule:nonzero;"/>
                    <path d="M520.087,302.094C520.129,301.906 520.193,301.656 520.278,301.347L521.399,297.154C521.411,297.105 521.422,297.057 521.431,297.008C521.44,296.959 521.445,296.914 521.445,296.871C521.445,296.622 521.366,296.467 521.208,296.407C521.05,296.346 520.761,296.306 520.342,296.288L520.342,295.796C520.694,295.772 521.206,295.721 521.878,295.645C522.549,295.57 523.024,295.504 523.304,295.449L524.106,295.295L522.657,300.608C522.535,301.064 522.453,301.38 522.411,301.556C522.301,302.006 522.247,302.297 522.247,302.431C522.247,302.565 522.277,302.651 522.338,302.691C522.399,302.73 522.465,302.75 522.538,302.75C522.727,302.75 522.961,302.589 523.24,302.267C523.52,301.945 523.766,301.608 523.978,301.255L524.389,301.52C523.781,302.413 523.316,303.014 522.994,303.324C522.465,303.835 521.9,304.09 521.299,304.09C520.959,304.09 520.653,303.985 520.383,303.776C520.112,303.566 519.977,303.245 519.977,302.814C519.977,302.662 520.014,302.422 520.087,302.094ZM524.471,291.494C524.714,291.737 524.835,292.032 524.835,292.378C524.835,292.724 524.714,293.021 524.471,293.267C524.228,293.513 523.933,293.636 523.587,293.636C523.24,293.636 522.944,293.513 522.698,293.267C522.452,293.021 522.329,292.724 522.329,292.378C522.329,292.032 522.452,291.737 522.698,291.494C522.944,291.251 523.24,291.129 523.587,291.129C523.933,291.129 524.228,291.251 524.471,291.494Z" style="fill:rgb(90,37,103);fill-rule:nonzero;"/>
                    <path d="M532.163,295.723C533.038,296.221 533.476,297.069 533.476,298.266C533.476,299.59 532.971,300.876 531.963,302.121C530.863,303.476 529.605,304.154 528.189,304.154C527.466,304.154 526.781,303.929 526.134,303.479C525.487,303.03 525.163,302.27 525.163,301.201C525.163,299.87 525.665,298.582 526.667,297.336C527.767,295.975 529.034,295.295 530.468,295.295C531.1,295.295 531.665,295.437 532.163,295.723ZM527.506,303.051C527.658,303.397 527.943,303.57 528.362,303.57C529.14,303.57 529.839,302.677 530.459,300.891C530.975,299.39 531.234,298.093 531.234,296.999C531.234,296.707 531.197,296.479 531.124,296.315C530.984,296.012 530.723,295.86 530.34,295.86C529.447,295.86 528.697,296.808 528.089,298.703C527.621,300.143 527.387,301.34 527.387,302.294C527.387,302.616 527.427,302.869 527.506,303.051Z" style="fill:rgb(90,37,103);fill-rule:nonzero;"/>
                    <path d="M534.451,303.889L536.119,297.929C536.186,297.686 536.234,297.494 536.265,297.354C536.325,297.093 536.356,296.911 536.356,296.808C536.356,296.583 536.286,296.443 536.146,296.388C536.006,296.334 535.736,296.3 535.335,296.288L535.335,295.796C536.113,295.747 536.717,295.693 537.149,295.632C537.58,295.571 538.224,295.459 539.081,295.295L537.951,298.749L537.996,298.776C537.966,298.807 538.148,298.529 538.543,297.942C538.938,297.356 539.315,296.88 539.673,296.516C540.026,296.145 540.395,295.849 540.781,295.627C541.167,295.405 541.572,295.295 541.998,295.295C542.393,295.295 542.728,295.407 543.005,295.632C543.281,295.857 543.419,296.224 543.419,296.735C543.419,297.209 543.146,298.254 542.599,299.87C542.046,301.48 541.77,302.343 541.77,302.458C541.77,302.568 541.803,302.651 541.87,302.709C541.937,302.767 542.004,302.796 542.071,302.796C542.235,302.796 542.478,302.589 542.8,302.176C542.97,301.957 543.155,301.687 543.356,301.365L543.766,301.629C543.304,302.376 542.912,302.914 542.59,303.242C542.031,303.807 541.439,304.09 540.813,304.09C540.479,304.09 540.179,303.993 539.915,303.798C539.651,303.604 539.518,303.297 539.518,302.878C539.518,302.61 539.582,302.221 539.71,301.711C539.838,301.201 539.992,300.675 540.175,300.134L541.104,297.345C541.123,297.278 541.138,297.221 541.15,297.172C541.162,297.124 541.168,297.075 541.168,297.026C541.168,296.887 541.121,296.789 541.027,296.735C540.933,296.68 540.831,296.653 540.722,296.653C540.339,296.653 539.913,296.949 539.446,297.541C538.978,298.134 538.595,298.725 538.297,299.314C537.975,299.952 537.705,300.599 537.486,301.255C537.267,301.912 537.006,302.79 536.702,303.889L534.451,303.889Z" style="fill:rgb(90,37,103);fill-rule:nonzero;"/>
                </g>
            </g>
        </g>
    </g>
</svg>
